<svg width="300" height="73" viewBox="0 0 300 73" fill="none" xmlns="http://www.w3.org/2000/svg">
<g clip-path="url(#clip0_2015_9)">
<mask id="mask0_2015_9" style="mask-type:luminance" maskUnits="userSpaceOnUse" x="0" y="0" width="300" height="73">
<path d="M300 0H0V72.6848H300V0Z" fill="white"/>
</mask>
<g mask="url(#mask0_2015_9)">
<path d="M72.4333 36.1421C72.2666 46.1341 68.8353 54.689 62.2389 61.5733C56.6088 67.4549 49.5791 71.0473 41.3671 72.2673C39.4975 72.5451 37.6103 72.6846 35.7202 72.6848C26.6753 72.6848 18.4465 69.2928 11.2005 62.5592C5.6203 57.3792 2.10557 51.13 0.772975 43.9951C-1.60903 31.2629 1.52256 20.2181 10.1011 11.1618C16.2477 4.67862 24.0101 0.969182 33.1717 0.150433C42.8663 -0.718444 51.8279 2.18895 59.7904 8.78907C62.4081 10.9622 64.674 13.5297 66.5065 16.4001C66.5582 16.482 66.6064 16.5672 66.6497 16.649L68.2156 19.7252L68.1839 19.7553L63.2683 24.4338L62.6719 23.2258C60.9637 19.6873 58.5488 16.5386 55.5774 13.9748C52.6061 11.4109 49.1413 9.48665 45.3982 8.3212C37.5359 5.83153 29.0239 6.63359 22.0445 10.5268C8.36877 18.1295 2.90512 35.0392 9.60141 49.0247C16.3643 63.1606 32.9051 69.5771 47.2473 63.6284C59.457 58.5658 65.787 46.3345 65.4039 36.5597L63.7546 38.1304C60.8896 40.854 58.0411 43.5607 55.1927 46.2843V38.9992C55.1896 38.2906 55.333 37.5893 55.6139 36.9391C55.8948 36.2891 56.3074 35.7048 56.8252 35.223C57.3415 34.7383 57.8579 34.2371 58.3743 33.7525C60.2568 31.9645 62.139 30.1435 63.9713 28.3889C65.1373 27.2694 66.3034 26.1332 67.486 25.0136C67.7537 24.7564 68.0374 24.5164 68.3355 24.2952C68.4688 24.1782 68.6186 24.0779 68.7685 23.9443L69.8181 23.0587L70.3344 24.3453C70.3692 24.409 70.397 24.4762 70.4178 24.5458C70.4804 24.6877 70.5359 24.8327 70.5842 24.9802C71.8835 28.8568 72.4998 32.4994 72.4333 36.1421Z" fill="white"/>
<path d="M53.0107 17.5446C52.6277 18.3968 52.2943 19.2155 51.9112 20.0009C48.3799 26.9519 44.8652 33.9028 41.2672 40.8205C40.3905 42.4813 39.9491 44.3386 39.9844 46.2174C40.0344 49.626 40.0013 53.0181 40.0178 56.4267C40.0178 57.563 39.6513 57.9306 38.5352 57.9306C36.9196 57.9306 35.2871 57.9138 33.6712 57.9306C32.4721 57.9306 32.089 57.5964 32.089 56.3767C32.1056 53.0849 32.089 49.7765 32.1555 46.4849C32.2055 44.0621 31.4059 41.9231 30.3398 39.8012C26.9251 32.9672 23.527 26.1164 20.1455 19.2489C19.8957 18.731 19.6791 18.1963 19.4126 17.578C22.211 17.578 24.8596 17.5613 27.5248 17.5948C28.2078 17.5948 28.5244 18.1461 28.7573 18.6808C29.8902 21.1538 31.0394 23.6434 32.139 26.1331C33.5048 29.2409 34.8207 32.3655 36.17 35.4901C36.22 35.5906 36.2865 35.7073 36.3867 35.8911C36.5696 35.4901 36.7363 35.1727 36.8862 34.8385C39.3294 29.4581 41.7836 24.0779 44.249 18.6975C44.6152 17.8955 45.165 17.4778 46.0313 17.4778L52.6442 17.5279C52.7663 17.5097 52.8906 17.5154 53.0107 17.5446Z" fill="white"/>
<path d="M272.269 39.32C271.741 33.1142 268.246 29.2443 262.163 28.1248C261.275 27.9577 260.367 27.8842 259.566 27.8141C259.216 27.784 258.884 27.7556 258.576 27.7205H258.54H258.503C258.113 27.7472 257.748 27.7689 257.402 27.7906C256.664 27.8358 256.026 27.8742 255.376 27.9427C249.793 28.5309 246.007 31.6187 244.716 36.6315C243.851 39.9446 243.84 43.424 244.686 46.7422C245.797 51.1651 248.61 53.9824 253.048 55.1119C254.74 55.543 256.479 55.7602 258.225 55.7585C259.735 55.756 261.242 55.6022 262.722 55.2988C267.869 54.2596 270.999 51.0814 272.026 45.8515C272.278 44.5364 272.402 43.1992 272.393 41.8597C272.382 41.0577 272.349 40.2155 272.269 39.32ZM267.541 41.773C267.541 42.8969 267.418 44.0178 267.173 45.1148C266.31 48.9963 263.82 50.9344 259.344 51.2136C258.01 51.2916 256.672 51.2074 255.358 50.963C252.052 50.3579 249.954 48.3028 249.295 45.0228C248.892 43.0555 248.862 41.0299 249.203 39.0508C249.919 34.9255 252.303 32.7382 256.492 32.3672C256.884 32.3321 257.288 32.3172 257.682 32.3021L258.228 32.2805L258.413 32.2889C259.326 32.3082 260.236 32.395 261.137 32.5476C264.433 33.1827 266.393 35.0391 267.133 38.2288C267.404 39.3907 267.541 40.5797 267.541 41.773Z" fill="white"/>
<path d="M174.04 30.7867C174.352 29.5937 173.485 29.5954 172.609 29.5701C169.673 29.4901 166.708 29.9327 163.799 29.333C160.667 28.6828 157.446 28.5854 154.281 29.0456C148.617 29.8659 145.388 32.9372 144.49 38.2505C143.352 44.9742 146.427 50.0807 152.675 51.6882C156.173 52.5887 159.726 52.5803 163.256 51.8018C165.22 51.3691 166.334 51.9904 166.817 53.9389C167.505 56.7093 166.19 59.2356 163.319 60.1931C159.898 61.3325 156.425 61.1956 153.04 59.9557C151.466 59.3827 150.208 58.2514 149.927 56.5755C149.662 54.9899 148.683 55.1869 147.661 55.2388C146.64 55.2907 145.559 54.9983 144.576 55.4159C144.243 55.5579 144.432 56.0844 144.487 56.4301C144.955 59.4713 146.354 62.001 149.169 63.306C155.144 66.0747 161.299 66.2518 167.344 63.5984C170.987 61.9976 172.548 58.6258 172.094 54.6674C171.795 52.0491 170.444 50.1559 168.263 48.7724C172.654 44.6167 173.359 40.0836 170.595 33.7727C171.45 33.6607 172.113 33.5035 172.777 33.4968C175.069 33.4684 173.79 31.7473 174.04 30.7867ZM162.928 47.1615C161.41 47.7413 159.833 47.9052 158.224 47.8968C157.489 47.855 156.746 47.8668 156.02 47.7632C150.591 46.9861 147.964 42.1606 150.19 37.0828C150.931 35.3832 152.234 34.3224 153.958 33.8192C156.8 32.9647 159.83 32.9754 162.666 33.8495C165.535 34.735 166.926 36.9374 166.984 40.4077C167.042 43.8784 165.705 46.0974 162.928 47.1548V47.1615Z" fill="white"/>
<path d="M296.961 53.3575C296.192 53.9328 295.344 54.395 294.446 54.7292C293.439 55.1005 292.395 55.3551 291.331 55.4878C290.183 55.645 289.03 55.7258 287.874 55.7303C285.864 55.7488 283.866 55.4407 281.955 54.8179C278.359 53.6199 276.143 51.3004 275.372 47.9269C275.247 47.3754 275.179 46.8125 275.529 46.4331C275.787 46.1524 276.205 46.059 276.804 46.1457C277.041 46.176 277.28 46.176 277.516 46.1457C278.863 45.9787 280.181 46.1056 280.629 48.1057C280.925 49.4123 282.244 50.1391 283.002 50.4551C286.167 51.7767 289.383 51.8421 292.555 50.6471C294.202 50.0272 295.055 48.8642 295.077 47.1902C295.108 45.2317 294.578 44.5416 292.734 44.1122C291.084 43.7263 289.361 43.5709 287.694 43.4204C286.555 43.3186 285.379 43.2133 284.225 43.0346C282.825 42.8173 281.335 42.5333 279.895 41.9485C277.694 41.0493 276.186 39.2516 275.757 37.0191C275.327 34.7869 276.065 32.5079 277.792 30.837C279.81 28.8801 282.337 28.2905 284.312 27.9963C285.073 27.8827 285.836 27.8392 286.451 27.8041C286.684 27.7908 286.897 27.7774 287.077 27.764H287.121C289.953 27.8359 292.285 28.0982 294.485 29.1007C296.966 30.237 298.569 32.0684 299.245 34.5397C299.397 35.0942 299.503 35.7091 299.138 36.1219C298.866 36.4194 298.425 36.5129 297.786 36.4026C297.595 36.3793 297.404 36.3793 297.213 36.4026C295.99 36.5246 294.628 36.4963 293.961 34.6099C293.627 33.6891 292.765 33.0658 291.143 32.5862C288.668 31.8543 286.035 31.8596 283.563 32.6013C282.831 32.8023 282.154 33.1693 281.585 33.6739C280.712 34.4645 280.402 35.4318 280.634 36.6316C280.813 37.5506 281.399 38.0819 282.6 38.4077C284.214 38.8472 285.915 38.9942 287.559 39.1379C288.446 39.2148 289.361 39.2934 290.262 39.4169C291.811 39.6324 293.203 39.8415 294.609 40.229C296.773 40.829 299.324 41.9418 299.837 45.2418C300.404 48.8261 299.458 51.4778 296.961 53.3575Z" fill="white"/>
<path d="M241.086 33.7875C240.476 31.0858 238.784 29.3798 236.059 28.7181C235.095 28.4896 234.107 28.3774 233.116 28.3838C231.713 28.3838 230.31 28.3838 228.908 28.3838C225.492 28.3838 221.957 28.3838 218.484 28.3488C218.084 28.3488 217.587 28.3805 217.261 28.7063C216.935 29.0321 216.905 29.5417 216.911 30.023C216.946 32.8636 216.939 35.7643 216.935 38.5664C216.935 39.6023 216.935 40.6389 216.935 41.6759V51.8251C216.935 53.4174 216.935 54.2178 217.423 54.7058C217.847 55.1285 218.495 55.1787 219.688 55.1787H220.243H220.359C220.733 55.1787 221.192 55.1352 221.504 54.8229C221.815 54.5102 221.837 54.0623 221.837 53.6532C221.814 52.5368 221.819 51.4008 221.824 50.3013C221.824 48.9727 221.834 47.5976 221.792 46.2444C221.778 45.8164 221.844 45.6578 221.899 45.6009C222.022 45.4757 222.453 45.4824 222.597 45.4839C226.634 45.5391 230.259 45.5391 233.687 45.4839C237.998 45.4171 240.528 43.4105 241.208 39.5206C241.361 38.6529 241.438 37.7734 241.439 36.8922C241.436 35.8474 241.317 34.8062 241.086 33.7875ZM222.025 41.0877C221.962 41.0916 221.899 41.0838 221.839 41.0644C221.828 41.0509 221.802 40.9892 221.803 40.7301V39.2882C221.812 37.2831 221.819 35.2196 221.785 33.1827C221.785 32.9254 221.83 32.8636 221.832 32.8636C221.834 32.8636 221.919 32.8151 222.27 32.8218C223.574 32.8401 224.9 32.8367 226.183 32.8336H227.329V32.8569H227.745C228.28 32.8569 228.816 32.8569 229.351 32.8434C230.517 32.8302 231.735 32.8151 232.919 32.8735C235.383 32.9938 236.469 34.1686 236.549 36.8001C236.549 36.8972 236.549 36.994 236.549 37.0878C236.549 39.5941 235.458 40.8623 233.217 40.9743C230.73 41.1028 228.189 41.0927 225.721 41.0829C225.055 41.0829 224.377 41.0829 223.696 41.0829C223.138 41.0829 222.577 41.0829 222.018 41.0829L222.025 41.0877Z" fill="white"/>
<path d="M139.986 37.477C138.975 33.1642 136.269 30.5141 132.053 29.4048C129.357 28.6945 126.608 28.6327 123.835 28.9218C117.215 29.6136 113.489 33.0457 112.809 39.6542C111.976 47.7129 114.56 53.8168 123.108 55.0782C124.258 55.2455 125.426 55.2705 126.377 55.3457C127.449 55.2924 128.307 55.2738 129.163 55.202C135.265 54.6924 139.066 51.5094 140.157 45.8899C140.698 43.1054 140.639 40.2371 139.986 37.477ZM134.915 45.2416C133.982 48.9477 131.332 50.6038 126.587 50.5886C123.465 50.5468 120.423 50.0975 118.924 46.9227C117.31 43.5256 117.378 39.9999 119.186 36.6466C120.05 35.0408 121.608 34.2472 123.328 33.8293C125.421 33.3126 127.606 33.2966 129.706 33.7824C132.386 34.4007 134.189 35.9548 134.887 38.675C135.45 40.8261 135.46 43.0855 134.915 45.2416Z" fill="white"/>
<path d="M201.678 32.0181C200.397 30.638 198.68 29.8861 196.879 29.4264C193.598 28.582 190.169 28.5018 186.853 29.1927C181.433 30.3088 178.477 33.3699 177.639 38.8154C177.413 40.3971 177.357 41.9987 177.473 43.5927C177.901 50.4234 181.358 54.1561 188.087 55.1302C189.176 55.289 190.287 55.2789 191.252 55.339C192.242 55.289 193.103 55.2857 193.955 55.1919C198.798 54.6607 202.874 52.781 204.322 47.7565C205.93 42.1906 205.982 36.6615 201.678 32.0181ZM198.223 48.0857C196.557 50.3047 193.969 50.5637 190.894 50.592C188.354 50.562 185.335 50.2028 183.769 47.1716C182.004 43.758 181.971 40.0937 183.878 36.7452C185.668 33.6004 188.961 33.3464 192.148 33.487C195.21 33.6206 198.1 34.4594 199.254 37.7361C200.515 41.2867 200.615 44.9058 198.223 48.0857Z" fill="white"/>
<path d="M81.0452 19.6333C82.8457 19.6333 84.6098 19.65 86.3756 19.6333C87.2517 19.6216 87.4566 20.3451 87.813 20.8781C91.2267 25.99 94.6305 31.1046 98.0239 36.222C98.7154 36.0817 98.842 35.4685 99.1319 35.0358C102.203 30.4342 105.295 25.8457 108.282 21.1856C109.041 19.9975 109.844 19.4779 111.247 19.6116C112.579 19.7386 113.935 19.6383 115.636 19.6383C115.033 20.5606 114.585 21.2541 114.137 21.9425C109.993 28.195 105.842 34.4442 101.687 40.69C101.125 41.4899 100.837 42.4508 100.866 43.4288C100.918 46.692 100.847 49.9569 100.906 53.2205C100.922 54.2229 100.699 54.5804 99.6115 54.5973C95.4272 54.6624 95.1022 54.6741 95.5055 50.5654C96.1035 44.468 94.4809 39.3702 90.6948 34.568C87.4333 30.4308 84.7998 25.7956 81.9064 21.3677C81.575 20.8731 81.0867 20.452 81.0452 19.6333Z" fill="white"/>
</g>
</g>
<defs>
<clipPath id="clip0_2015_9">
<rect width="300" height="72.6848" fill="white"/>
</clipPath>
</defs>
</svg>
