<svg width="50" height="33" viewBox="0 0 50 33" fill="none" xmlns="http://www.w3.org/2000/svg">
<g clip-path="url(#clip0_2014_8)">
<path d="M47.3062 22.8343C45.65 24.1864 43.9567 25.4949 42.2767 26.8156C41.9157 27.1007 41.3066 27.4978 40.938 27.7724C40.938 27.7478 41.1697 26.8584 41.1697 26.8584C41.3122 26.3657 41.3326 25.8458 41.2292 25.3435C41.1257 24.8412 40.9015 24.3717 40.5759 23.9755C40.3308 23.6666 38.4617 21.6076 36.568 19.5485C36.5663 19.5455 36.564 19.5429 36.5613 19.5409C34.8662 17.6984 33.152 15.8569 32.5638 15.2726C32.5486 15.2564 32.5325 15.2422 32.5172 15.2269C31.7922 14.5343 30.8858 14.2939 29.8652 14.5723C29.0718 14.789 28.4846 15.2973 27.9971 15.9026C27.5221 16.4898 14.9281 30.1784 14.8455 30.2591C13.5151 31.5894 11.782 31.6036 10.484 30.2315C9.014 28.679 7.58684 27.0855 6.14444 25.5072C5.83467 25.168 5.52728 24.7699 5.22607 24.4203C5.22607 24.4203 5.52301 24.4857 5.66459 24.5152C6.97871 24.7945 8.02774 24.6187 8.93803 23.6477C9.74666 22.7886 19.1565 12.5778 24.5251 6.71985C26.5015 4.56195 27.9278 2.99507 28.173 2.7043C29.5308 1.09562 31.5509 1.02625 33.0266 2.65965C33.1168 2.75467 33.21 2.86204 33.305 2.96751C35.2225 5.08646 38.2669 8.41405 40.9265 11.3103C44.2655 14.8621 47.6207 18.4415 47.6587 18.4861C48.8854 19.9105 48.7705 21.638 47.3062 22.8343Z" fill="#13DCDC"/>
<path d="M19.1025 1.51565L22.2821 4.46592C22.7178 4.86773 22.9761 5.42619 23.0219 6.02026C23.0459 6.6125 22.8265 7.16584 22.4246 7.60158L8.5138 22.741C8.26477 23.0111 7.9649 23.2295 7.63141 23.3836C7.29793 23.5378 6.93733 23.6247 6.57024 23.6395C6.20314 23.6543 5.83674 23.5965 5.49195 23.4696C5.14718 23.3427 4.83079 23.1491 4.56087 22.8998L2.05575 20.8289C1.51052 20.3262 1.18734 19.6274 1.15732 18.8864C1.1273 18.1453 1.39289 17.4227 1.89566 16.8774L15.9432 1.64365C16.1421 1.42769 16.3817 1.25306 16.6482 1.12973C16.9147 1.00641 17.2029 0.936815 17.4963 0.924928C17.7897 0.91304 18.0826 0.959097 18.3582 1.06045C18.6338 1.16181 18.8867 1.31649 19.1025 1.51565Z" fill="#327DF2"/>
<path d="M39.5126 27.8812L36.9061 30.8498C36.6846 31.0539 36.4248 31.212 36.1419 31.3149C35.8591 31.4177 35.5587 31.4633 35.2581 31.4491C34.9576 31.4348 34.6628 31.361 34.3909 31.2318C34.1189 31.1026 33.8752 30.9206 33.6738 30.6964L24.8003 20.851L29.0397 16.1649C30.0404 15.2183 31.3601 15.2874 32.2107 16.2312L34.8416 19.0428L39.2895 23.9914L39.8134 24.7052C40.5818 25.7078 40.4509 26.9337 39.5126 27.8812Z" fill="#327DF2"/>
</g>
<defs>
<clipPath id="clip0_2014_8">
<rect width="50" height="32.2581" fill="white"/>
</clipPath>
</defs>
</svg>
