<svg width="189" height="39" viewBox="0 0 189 39" fill="none" xmlns="http://www.w3.org/2000/svg">
<path d="M58.6598 28.3144C56.6061 29.991 54.5065 31.6135 52.4233 33.2512C51.9756 33.6047 51.2203 34.0972 50.7632 34.4377C50.7632 34.4071 51.0506 33.3043 51.0506 33.3043C51.2273 32.6934 51.2526 32.0487 51.1243 31.4258C50.996 30.803 50.718 30.2208 50.3142 29.7295C50.0103 29.3465 47.6926 26.7933 45.3444 24.24C45.3423 24.2363 45.3395 24.2331 45.3361 24.2306C43.2342 21.9459 41.1086 19.6625 40.3793 18.9379C40.3604 18.9178 40.3404 18.9002 40.3215 18.8813C39.4225 18.0224 38.2985 17.7243 37.033 18.0695C36.0492 18.3382 35.321 18.9685 34.7166 19.7191C34.1275 20.4472 18.511 37.4211 18.4085 37.5212C16.7589 39.1708 14.6098 39.1884 13.0003 37.487C11.1775 35.5618 9.40782 33.5859 7.61924 31.6288C7.23513 31.2082 6.85397 30.7146 6.48047 30.281C6.48047 30.281 6.84867 30.3622 7.02423 30.3987C8.65374 30.7451 9.95453 30.5271 11.0833 29.323C12.086 28.2578 23.7542 15.5964 30.4113 8.3325C32.862 5.6567 34.6306 3.71377 34.9346 3.35322C36.6183 1.35845 39.1232 1.27244 40.9531 3.29785C41.065 3.41567 41.1805 3.54881 41.2983 3.6796C43.676 6.30709 47.4511 10.4333 50.749 14.0246C54.8894 18.4289 59.0498 22.8673 59.0969 22.9227C60.618 24.6889 60.4755 26.831 58.6598 28.3144Z" fill="#F2854A"/>
<path d="M23.687 1.87941L27.6297 5.53775C28.17 6.03599 28.4903 6.72848 28.5471 7.46513C28.5768 8.19951 28.3047 8.88565 27.8064 9.42597L10.557 28.1989C10.2482 28.5338 9.87636 28.8046 9.46284 28.9957C9.04932 29.1869 8.60218 29.2947 8.14698 29.313C7.69178 29.3313 7.23744 29.2597 6.80991 29.1023C6.38239 28.9449 5.99007 28.7049 5.65537 28.3958L2.54902 25.8279C1.87293 25.2045 1.47219 24.338 1.43497 23.4191C1.39774 22.5002 1.72707 21.6041 2.35051 20.928L19.7694 2.03813C20.0161 1.77034 20.3132 1.5538 20.6437 1.40088C20.9741 1.24796 21.3315 1.16166 21.6953 1.14692C22.0591 1.13218 22.4223 1.18929 22.764 1.31497C23.1058 1.44066 23.4194 1.63246 23.687 1.87941Z" fill="#EE5710"/>
<path d="M48.9956 34.5727L45.7636 38.2537C45.4889 38.5068 45.1668 38.7028 44.816 38.8304C44.4653 38.9579 44.0928 39.0145 43.7201 38.9968C43.3474 38.9791 42.9819 38.8876 42.6447 38.7274C42.3075 38.5672 42.0053 38.3415 41.7556 38.0635L30.7524 25.8552L36.0093 20.0445C37.2501 18.8707 38.8866 18.9564 39.9413 20.1267L43.2036 23.6131L48.719 29.7493L49.3687 30.6344C50.3215 31.8776 50.1591 33.3977 48.9956 34.5727Z" fill="#EE5710"/>
<path d="M100.062 25.6183C100.062 27.5749 99.9963 29.538 99.9792 31.4906C99.8351 32.5389 99.1405 33.0526 97.9008 33.0631C97.3275 33.0792 96.7537 33.0533 96.1841 32.9858C94.8828 32.7827 94.7085 32.0999 94.7059 29.956C94.7059 27.4661 94.66 24.9762 94.7059 22.4863C94.7059 22.3238 94.7059 22.1639 94.7138 22.0027C94.7688 19.3425 92.8319 18.2416 90.9606 18.353C89.2962 18.3452 87.8927 19.3097 87.7158 21.5139C87.6998 21.7262 87.6946 21.9392 87.7001 22.1521C87.7001 22.312 87.708 22.4706 87.7106 22.6317C87.7001 22.9043 87.6914 23.1778 87.6844 23.4521C87.6844 23.5202 87.6844 23.5832 87.6909 23.6539C87.6909 23.7614 87.6909 23.8715 87.6988 23.9815C87.7084 24.4184 87.7141 24.8552 87.7158 25.292C87.7158 25.4021 87.7158 25.5122 87.7158 25.6209C87.7158 27.5775 87.6503 29.5406 87.6333 31.4932C87.5206 32.307 87.075 32.8037 86.2966 32.9832C86.0528 33.0357 85.8042 33.0616 85.5548 33.0605C84.9815 33.0766 84.4077 33.0507 83.8381 32.9832C83.8158 32.9832 83.7936 32.9766 83.7726 32.9714C82.5303 32.7565 82.3625 32.0606 82.3599 29.9573C82.3599 27.4674 82.314 24.9775 82.3599 22.4876C82.3599 22.3251 82.3599 22.1652 82.3678 22.004C82.3717 21.841 82.3668 21.6778 82.3534 21.5152H82.3783C82.204 19.311 80.8057 18.3465 79.1348 18.3544H79.0903C79.0627 18.3544 79.0339 18.3544 79.0064 18.3544C78.9186 18.3544 78.8321 18.3544 78.7443 18.3544H78.6591C76.9555 18.4408 75.3305 19.5692 75.3829 22.0053C75.3829 22.1731 75.3856 22.3408 75.3908 22.5086C75.4314 24.9906 75.3908 27.4753 75.3908 29.9599C75.3908 32.0672 75.2204 32.763 73.9794 32.974C73.9584 32.974 73.9349 32.9819 73.9126 32.9858C73.343 33.0533 72.7692 33.0792 72.1959 33.0631C71.9451 33.0648 71.6949 33.038 71.4502 32.9832C71.0844 32.912 70.7524 32.7222 70.5053 32.4433C70.2869 32.1737 70.1505 31.8472 70.1122 31.5024C70.0952 29.5484 70.0283 27.5827 70.0283 25.6236C70.0283 25.5148 70.0283 25.4047 70.0283 25.2946C70.0283 24.8578 70.034 24.421 70.0454 23.9842L70.0532 23.6565C70.0532 23.5884 70.0532 23.5255 70.0532 23.4547C70.0886 22.4286 70.1528 21.4051 70.2655 20.3869C70.2773 20.2768 70.2904 20.1694 70.3062 20.0645C70.3062 20.0645 70.3062 20.054 70.3062 20.0501C70.5683 18.4906 71.1304 17.0701 72.1972 16.0165C72.8902 15.3397 73.7389 14.8438 74.6687 14.5723C75.6445 14.2601 76.6475 14.0408 77.6645 13.9171C77.9746 13.904 78.2935 13.9 78.6211 13.9053H78.8622C81.6444 13.9747 82.9051 14.495 84.9678 16.3729C84.9866 16.3904 85.0114 16.4001 85.0372 16.4001C85.063 16.4001 85.0878 16.3904 85.1067 16.3729C85.2508 16.241 85.3919 16.1165 85.5299 15.9994C87.4092 14.3757 88.7026 13.9433 91.452 13.9027C91.7805 13.8974 92.1002 13.9014 92.4112 13.9145C93.4281 14.0388 94.4311 14.2581 95.407 14.5697C98.1891 15.4267 99.345 17.5576 99.7709 20.0383C99.7716 20.0431 99.7716 20.048 99.7709 20.0527C99.7866 20.1576 99.7997 20.265 99.8128 20.3751C99.9321 21.4589 99.9976 22.5505 100.03 23.6447C100.03 23.7522 100.03 23.8623 100.038 23.9724C100.048 24.4092 100.053 24.846 100.055 25.2828C100.062 25.3995 100.062 25.5122 100.062 25.6183Z" fill="black"/>
<path d="M159.397 19.4602C158.776 19.4602 158.305 19.4536 157.836 19.4602C156.967 19.4746 156.342 19.2138 156.19 18.2322C155.982 16.8903 156.363 15.8668 157.312 15.5445C157.967 15.3217 158.65 15.1801 159.278 15.0203C159.409 13.7478 159.424 12.5304 159.663 11.3509C160.207 8.66312 161.693 7.23863 164.407 6.89529C165.719 6.74917 167.043 6.74654 168.355 6.88743C169.91 7.03158 170.913 9.65908 169.908 10.8831C169.7 11.136 169.197 11.2395 168.826 11.2474C168.021 11.2644 167.21 11.0967 166.411 11.1465C164.649 11.2566 164.096 11.8974 164.087 13.6587C164.087 14.0597 164.087 14.4607 164.087 15.0412C165.411 15.0412 166.679 15.0321 167.948 15.0412C169.402 15.0543 169.782 15.4947 169.806 17.117C169.826 18.9949 169.514 19.4025 167.987 19.4523C167.363 19.4733 166.738 19.4523 166.113 19.4523H164.087V20.6881C164.087 24.1058 164.087 27.5222 164.087 30.9386C164.087 32.62 163.598 33.0432 161.756 33.0472C159.891 33.0472 159.411 32.6422 159.406 30.974C159.389 27.2051 159.397 23.4244 159.397 19.4602Z" fill="black"/>
<path d="M144.182 8.3812C144.182 6.41549 143.729 6.04593 141.455 6.04724C139.283 6.04724 138.855 6.41156 138.844 8.32092C138.833 10.1071 138.844 11.8919 138.844 13.8249C136.97 13.8249 135.275 13.7489 133.59 13.8393C129.77 14.045 126.783 16.1733 126.042 19.5451C125.617 21.5444 125.503 23.597 125.703 25.631C126.06 29.3317 128.149 31.8728 131.863 32.5922C134.038 33.0129 136.352 33.1872 138.546 32.946C142.833 32.4769 144.181 30.7182 144.189 26.3819C144.19 20.3851 144.188 14.3849 144.182 8.3812ZM138.77 26.7934C138.74 27.3883 138.009 28.2742 137.422 28.4577C133.793 29.5886 131.12 27.7775 130.835 24.0099C130.75 22.8921 130.953 21.71 131.249 20.6184C131.815 18.5387 133.636 18.2281 135.406 18.101C136.485 18.0223 137.586 18.2438 138.834 18.3434C138.834 21.3051 138.914 24.0558 138.77 26.7934Z" fill="black"/>
<path d="M122.501 22.3551C122.353 21.3867 122.221 20.4156 121.96 19.4799L121.953 19.4576C121.036 16.1972 118.739 14.2826 115.502 13.7453C111.762 13.1267 108.054 13.2984 105.304 16.4606C101.953 20.3134 102.494 28.1841 106.4 30.9938C109.978 33.5689 114.001 33.599 117.897 31.8377C120.541 30.6426 121.746 28.5353 122.285 26.0362C122.386 25.5802 122.46 25.1097 122.521 24.6301C122.582 23.8727 122.575 23.1113 122.501 22.3551ZM117.069 23.9277C116.973 26.9614 115.595 28.3912 112.852 28.3925C110.211 28.3925 108.921 27.1868 108.652 24.427C108.606 24.0096 108.581 23.5901 108.577 23.1702L108.589 22.9592C108.613 22.4927 108.626 22.0236 108.681 21.5623C108.956 19.282 110.352 18.0109 112.672 17.8995C114.9 17.792 116.38 18.881 116.866 21.1075C117.05 22.0396 117.12 22.9905 117.074 23.9395L117.069 23.9277Z" fill="black"/>
<path d="M179.019 23.7294C179.019 26.1761 178.991 28.6241 179.029 31.0681C179.052 32.4625 178.421 33.0967 177.048 33.0535C176.549 33.0378 176.048 33.043 175.549 33.0535C174.315 33.0745 173.665 32.4363 173.66 31.2398C173.639 26.1958 173.65 21.1491 173.652 16.1077C173.652 14.9624 174.238 14.3464 175.381 14.2901C175.978 14.2599 176.579 14.2495 177.176 14.2691C178.436 14.3097 179.066 14.889 179.034 16.2348C178.982 18.7339 179.019 21.2317 179.019 23.7294Z" fill="black"/>
<path d="M176.419 5.98578C178.36 5.99233 179.341 6.99223 179.321 8.94746C179.304 10.7978 178.312 11.7649 176.419 11.7754C174.504 11.7872 173.349 10.6917 173.356 8.87145C173.362 7.0512 174.504 5.97661 176.419 5.98578Z" fill="black"/>
<path d="M188.032 23.7294C188.032 26.1761 188.005 28.6241 188.043 31.0681C188.064 32.4625 187.435 33.0967 186.06 33.0535C185.562 33.0378 185.061 33.043 184.562 33.0535C183.329 33.0745 182.679 32.4363 182.674 31.2398C182.653 26.1958 182.663 21.1491 182.666 16.1077C182.666 14.9624 183.252 14.3464 184.394 14.2901C184.992 14.2599 185.592 14.2495 186.19 14.2691C187.449 14.3097 188.08 14.889 188.048 16.2348C187.99 18.7339 188.032 21.2317 188.032 23.7294Z" fill="black"/>
<path d="M185.431 5.98578C187.374 5.99233 188.354 6.99223 188.334 8.94746C188.317 10.7978 187.325 11.7649 185.431 11.7754C183.517 11.7872 182.361 10.6917 182.369 8.87145C182.377 7.0512 183.517 5.97661 185.431 5.98578Z" fill="black"/>
<path d="M152.843 23.5777C152.843 25.9719 152.861 28.3675 152.843 30.7617C152.823 32.6422 152.398 33.0406 150.543 33.0564C147.66 33.0812 147.463 32.8899 147.462 30.0514C147.462 25.6115 147.449 21.1703 147.462 16.7304C147.471 14.5813 147.869 14.2405 150.197 14.2549C152.404 14.2654 152.827 14.6402 152.843 16.6924C152.857 18.9871 152.844 21.283 152.843 23.5777Z" fill="black"/>
<path d="M147.236 8.92118C147.225 6.94761 148.174 5.98834 150.137 5.98572C152.1 5.9831 153.09 6.96464 153.084 8.8976C153.084 10.7781 152.12 11.7452 150.233 11.7806C148.245 11.8103 147.246 10.8572 147.236 8.92118Z" fill="black"/>
</svg>
