<svg width="189" height="39" viewBox="0 0 189 39" fill="none" xmlns="http://www.w3.org/2000/svg">
<path d="M58.6596 28.3144C56.6059 29.991 54.5063 31.6135 52.4231 33.2512C51.9754 33.6047 51.2201 34.0972 50.763 34.4377C50.763 34.4071 51.0504 33.3043 51.0504 33.3043C51.2271 32.6934 51.2524 32.0487 51.1241 31.4258C50.9958 30.803 50.7178 30.2208 50.314 29.7295C50.0101 29.3465 47.6924 26.7933 45.3442 24.24C45.3421 24.2363 45.3393 24.2331 45.3359 24.2306C43.234 21.9459 41.1084 19.6625 40.3791 18.9379C40.3602 18.9178 40.3402 18.9002 40.3213 18.8813C39.4223 18.0224 38.2983 17.7243 37.0328 18.0695C36.049 18.3382 35.3208 18.9685 34.7164 19.7191C34.1273 20.4472 18.5108 37.4211 18.4083 37.5212C16.7587 39.1708 14.6096 39.1884 13.0001 37.487C11.1773 35.5618 9.40761 33.5859 7.61903 31.6288C7.23492 31.2082 6.85376 30.7146 6.48026 30.281C6.48026 30.281 6.84846 30.3622 7.02402 30.3987C8.65353 30.7451 9.95432 30.5271 11.0831 29.323C12.0858 28.2578 23.754 15.5964 30.4111 8.33246C32.8618 5.65666 34.6304 3.71373 34.9344 3.35318C36.6181 1.35841 39.123 1.2724 40.9529 3.29781C41.0648 3.41563 41.1803 3.54877 41.2981 3.67956C43.6758 6.30705 47.4509 10.4333 50.7488 14.0246C54.8892 18.4289 59.0496 22.8673 59.0967 22.9227C60.6178 24.6889 60.4753 26.831 58.6596 28.3144Z" fill="#F2854A"/>
<path d="M23.6872 1.87943L27.6299 5.53777C28.1702 6.03601 28.4905 6.7285 28.5473 7.46515C28.577 8.19953 28.3049 8.88567 27.8066 9.42599L10.5572 28.1989C10.2484 28.5338 9.87656 28.8046 9.46304 28.9957C9.04952 29.1869 8.60238 29.2947 8.14718 29.313C7.69198 29.3313 7.23764 29.2597 6.81011 29.1023C6.38259 28.9449 5.99027 28.7049 5.65557 28.3958L2.54922 25.8279C1.87313 25.2045 1.47239 24.338 1.43517 23.4191C1.39794 22.5002 1.72727 21.6041 2.35071 20.928L19.7696 2.03815C20.0163 1.77036 20.3134 1.55382 20.6439 1.4009C20.9743 1.24798 21.3317 1.16168 21.6955 1.14694C22.0593 1.1322 22.4225 1.18931 22.7642 1.31499C23.106 1.44068 23.4196 1.63248 23.6872 1.87943Z" fill="#EE5710"/>
<path d="M48.9955 34.5727L45.7635 38.2537C45.4888 38.5068 45.1667 38.7028 44.8159 38.8304C44.4652 38.9579 44.0927 39.0145 43.72 38.9968C43.3473 38.9791 42.9818 38.8876 42.6446 38.7274C42.3074 38.5672 42.0052 38.3415 41.7555 38.0635L30.7523 25.8552L36.0092 20.0445C37.25 18.8707 38.8865 18.9564 39.9412 20.1267L43.2035 23.6131L48.7189 29.7493L49.3686 30.6344C50.3214 31.8776 50.159 33.3977 48.9955 34.5727Z" fill="#EE5710"/>
<path d="M100.062 25.6182C100.062 27.5748 99.9963 29.5379 99.9792 31.4905C99.8351 32.5388 99.1405 33.0525 97.9008 33.063C97.3275 33.0791 96.7537 33.0532 96.1841 32.9857C94.8828 32.7826 94.7085 32.0998 94.7059 29.9559C94.7059 27.466 94.66 24.9761 94.7059 22.4862C94.7059 22.3237 94.7059 22.1638 94.7138 22.0026C94.7688 19.3424 92.8319 18.2415 90.9606 18.3529C89.2962 18.3451 87.8927 19.3096 87.7158 21.5138C87.6998 21.7261 87.6946 21.9391 87.7001 22.152C87.7001 22.3119 87.708 22.4705 87.7106 22.6316C87.7001 22.9042 87.6914 23.1777 87.6844 23.452C87.6844 23.5201 87.6844 23.5831 87.6909 23.6538C87.6909 23.7613 87.6909 23.8714 87.6988 23.9814C87.7084 24.4183 87.7141 24.8551 87.7158 25.2919C87.7158 25.402 87.7158 25.5121 87.7158 25.6208C87.7158 27.5774 87.6503 29.5405 87.6333 31.4931C87.5206 32.3069 87.075 32.8036 86.2966 32.9831C86.0528 33.0356 85.8042 33.0615 85.5548 33.0604C84.9815 33.0765 84.4077 33.0506 83.8381 32.9831C83.8158 32.9831 83.7936 32.9765 83.7726 32.9713C82.5303 32.7564 82.3625 32.0605 82.3599 29.9572C82.3599 27.4673 82.314 24.9774 82.3599 22.4875C82.3599 22.325 82.3599 22.1651 82.3678 22.0039C82.3717 21.8409 82.3668 21.6777 82.3534 21.5151H82.3783C82.204 19.3109 80.8057 18.3464 79.1348 18.3543H79.0903C79.0627 18.3543 79.0339 18.3543 79.0064 18.3543C78.9186 18.3543 78.8321 18.3543 78.7443 18.3543H78.6591C76.9555 18.4407 75.3305 19.5691 75.3829 22.0052C75.3829 22.173 75.3856 22.3407 75.3908 22.5085C75.4314 24.9905 75.3908 27.4752 75.3908 29.9598C75.3908 32.0671 75.2204 32.7629 73.9794 32.9739C73.9584 32.9739 73.9349 32.9818 73.9126 32.9857C73.343 33.0532 72.7692 33.0791 72.1959 33.063C71.9451 33.0647 71.6949 33.0379 71.4502 32.9831C71.0844 32.9119 70.7524 32.7221 70.5053 32.4432C70.2869 32.1736 70.1505 31.8471 70.1122 31.5023C70.0952 29.5483 70.0283 27.5826 70.0283 25.6235C70.0283 25.5147 70.0283 25.4046 70.0283 25.2945C70.0283 24.8577 70.034 24.4209 70.0454 23.9841L70.0532 23.6564C70.0532 23.5883 70.0532 23.5254 70.0532 23.4546C70.0886 22.4285 70.1528 21.405 70.2655 20.3868C70.2773 20.2767 70.2904 20.1693 70.3062 20.0644C70.3062 20.0644 70.3062 20.0539 70.3062 20.05C70.5683 18.4905 71.1304 17.07 72.1972 16.0164C72.8902 15.3396 73.7389 14.8437 74.6687 14.5722C75.6445 14.26 76.6475 14.0407 77.6645 13.917C77.9746 13.9039 78.2935 13.8999 78.6211 13.9052H78.8622C81.6444 13.9746 82.9051 14.4949 84.9678 16.3728C84.9866 16.3903 85.0114 16.4 85.0372 16.4C85.063 16.4 85.0878 16.3903 85.1067 16.3728C85.2508 16.2409 85.3919 16.1164 85.5299 15.9993C87.4092 14.3756 88.7026 13.9432 91.452 13.9026C91.7805 13.8973 92.1002 13.9013 92.4112 13.9144C93.4281 14.0387 94.4311 14.258 95.407 14.5696C98.1891 15.4266 99.345 17.5575 99.7709 20.0382C99.7716 20.043 99.7716 20.0479 99.7709 20.0526C99.7866 20.1575 99.7997 20.2649 99.8128 20.375C99.9321 21.4588 99.9976 22.5504 100.03 23.6446C100.03 23.7521 100.03 23.8622 100.038 23.9723C100.048 24.4091 100.053 24.8459 100.055 25.2827C100.062 25.3994 100.062 25.5121 100.062 25.6182Z" fill="white"/>
<path d="M159.397 19.4602C158.776 19.4602 158.305 19.4536 157.836 19.4602C156.967 19.4746 156.342 19.2138 156.19 18.2322C155.982 16.8903 156.363 15.8668 157.312 15.5445C157.967 15.3217 158.65 15.1801 159.278 15.0203C159.409 13.7478 159.424 12.5304 159.663 11.3509C160.207 8.66314 161.693 7.23865 164.407 6.89531C165.719 6.74919 167.043 6.74656 168.355 6.88745C169.91 7.0316 170.913 9.6591 169.908 10.8831C169.7 11.136 169.197 11.2395 168.826 11.2474C168.021 11.2644 167.21 11.0967 166.411 11.1465C164.649 11.2566 164.096 11.8974 164.087 13.6587C164.087 14.0597 164.087 14.4607 164.087 15.0412C165.411 15.0412 166.679 15.0321 167.948 15.0412C169.402 15.0543 169.782 15.4947 169.806 17.117C169.826 18.9949 169.514 19.4025 167.987 19.4523C167.363 19.4733 166.738 19.4523 166.113 19.4523H164.087V20.6881C164.087 24.1058 164.087 27.5222 164.087 30.9386C164.087 32.62 163.598 33.0432 161.756 33.0472C159.891 33.0472 159.411 32.6422 159.406 30.974C159.389 27.2051 159.397 23.4244 159.397 19.4602Z" fill="white"/>
<path d="M144.182 8.38117C144.182 6.41546 143.729 6.0459 141.455 6.04721C139.283 6.04721 138.855 6.41153 138.844 8.32089C138.833 10.1071 138.844 11.8919 138.844 13.8249C136.97 13.8249 135.275 13.7489 133.59 13.8393C129.77 14.045 126.783 16.1733 126.042 19.5451C125.617 21.5444 125.503 23.597 125.703 25.631C126.06 29.3317 128.149 31.8728 131.863 32.5922C134.038 33.0129 136.352 33.1872 138.546 32.946C142.833 32.4769 144.181 30.7182 144.189 26.3819C144.19 20.3851 144.188 14.3849 144.182 8.38117ZM138.77 26.7934C138.74 27.3883 138.009 28.2742 137.422 28.4577C133.793 29.5886 131.12 27.7775 130.835 24.0099C130.75 22.8921 130.953 21.71 131.249 20.6184C131.815 18.5387 133.636 18.2281 135.406 18.101C136.485 18.0223 137.586 18.2438 138.834 18.3434C138.834 21.3051 138.914 24.0558 138.77 26.7934Z" fill="white"/>
<path d="M122.501 22.3551C122.353 21.3867 122.221 20.4156 121.96 19.4799L121.953 19.4576C121.036 16.1972 118.739 14.2826 115.502 13.7453C111.762 13.1267 108.054 13.2984 105.304 16.4606C101.953 20.3134 102.494 28.1841 106.4 30.9938C109.978 33.5689 114.001 33.599 117.897 31.8377C120.541 30.6426 121.746 28.5353 122.285 26.0362C122.386 25.5802 122.46 25.1097 122.521 24.6301C122.582 23.8727 122.575 23.1113 122.501 22.3551ZM117.069 23.9277C116.973 26.9614 115.595 28.3912 112.852 28.3925C110.211 28.3925 108.921 27.1868 108.652 24.427C108.606 24.0096 108.581 23.5901 108.577 23.1702L108.589 22.9592C108.613 22.4927 108.626 22.0236 108.681 21.5623C108.956 19.282 110.352 18.0109 112.672 17.8995C114.9 17.792 116.38 18.881 116.866 21.1075C117.05 22.0396 117.12 22.9905 117.074 23.9395L117.069 23.9277Z" fill="white"/>
<path d="M179.019 23.7294C179.019 26.1761 178.991 28.6241 179.029 31.0681C179.052 32.4625 178.421 33.0967 177.048 33.0535C176.549 33.0378 176.048 33.043 175.549 33.0535C174.315 33.0745 173.665 32.4363 173.66 31.2398C173.639 26.1958 173.65 21.1491 173.652 16.1077C173.652 14.9624 174.238 14.3464 175.381 14.2901C175.978 14.2599 176.579 14.2495 177.176 14.2691C178.436 14.3097 179.066 14.889 179.034 16.2348C178.982 18.7339 179.019 21.2317 179.019 23.7294Z" fill="white"/>
<path d="M176.419 5.98575C178.36 5.9923 179.341 6.9922 179.321 8.94743C179.304 10.7978 178.312 11.7649 176.419 11.7754C174.504 11.7872 173.349 10.6917 173.356 8.87142C173.362 7.05117 174.504 5.97658 176.419 5.98575Z" fill="white"/>
<path d="M188.032 23.7294C188.032 26.1761 188.005 28.6241 188.043 31.0681C188.064 32.4625 187.435 33.0967 186.06 33.0535C185.562 33.0378 185.061 33.043 184.562 33.0535C183.329 33.0745 182.679 32.4363 182.674 31.2398C182.653 26.1958 182.663 21.1491 182.666 16.1077C182.666 14.9624 183.252 14.3464 184.394 14.2901C184.992 14.2599 185.592 14.2495 186.19 14.2691C187.449 14.3097 188.08 14.889 188.048 16.2348C187.99 18.7339 188.032 21.2317 188.032 23.7294Z" fill="white"/>
<path d="M185.431 5.98575C187.374 5.9923 188.354 6.9922 188.334 8.94743C188.317 10.7978 187.325 11.7649 185.431 11.7754C183.517 11.7872 182.361 10.6917 182.369 8.87142C182.377 7.05117 183.517 5.97658 185.431 5.98575Z" fill="white"/>
<path d="M152.843 23.5777C152.843 25.9719 152.861 28.3675 152.843 30.7617C152.823 32.6422 152.398 33.0406 150.543 33.0564C147.66 33.0812 147.463 32.8899 147.462 30.0514C147.462 25.6115 147.449 21.1703 147.462 16.7304C147.471 14.5813 147.869 14.2405 150.197 14.2549C152.404 14.2654 152.827 14.6402 152.843 16.6924C152.857 18.9871 152.844 21.283 152.843 23.5777Z" fill="white"/>
<path d="M147.236 8.92116C147.225 6.94759 148.174 5.98832 150.137 5.9857C152.1 5.98308 153.09 6.96462 153.084 8.89758C153.084 10.7781 152.12 11.7452 150.233 11.7806C148.245 11.8103 147.246 10.8572 147.236 8.92116Z" fill="white"/>
</svg>
